HIERARCHY
ROOT mixamorig:Hips
{
  OFFSET 0.000000 0.000000 0.000000
  CHANNELS 6 Xposition Yposition Zposition Xrotation Yrotation Zrotation
  JOINT mixamorig:Spine
  {
    OFFSET 1.732926 25.370933 -4.249398
    CHANNELS 3 Xrotation Yrotation Zrotation
    JOINT mixamorig:Spine2
    {
      OFFSET 1.732926 25.370933 -4.249398
      CHANNELS 3 Xrotation Yrotation Zrotation
      JOINT mixamorig:Neck
      {
        OFFSET 0.000000 4.323645 0.000000
        CHANNELS 3 Xrotation Yrotation Zrotation
        JOINT mixamorig:Head
        {
          OFFSET 0.000000 4.969105 0.000000
          CHANNELS 3 Xrotation Yrotation Zrotation
          End Site
          {
            OFFSET 0.000000 1.490731 0.000000
          }
        }
      }
      JOINT mixamorig:LeftShoulder
      {
        OFFSET 15.875986 2.816427 -1.102538
        CHANNELS 3 Xrotation Yrotation Zrotation
        JOINT mixamorig:LeftArm
        {
          OFFSET 10.000000 -2.000000 0.000000
          CHANNELS 3 Xrotation Yrotation Zrotation
          JOINT mixamorig:LeftForeArm
          {
            OFFSET 23.483627 0.000000 0.000000
            CHANNELS 3 Xrotation Yrotation Zrotation
            JOINT mixamorig:LeftHand
            {
              OFFSET 28.348658 0.000000 0.000000
              CHANNELS 3 Xrotation Yrotation Zrotation
              End Site
              {
                OFFSET 8.504597 0.000000 0.000000
              }
            }
          }
        }
      }
      JOINT mixamorig:RightShoulder
      {
        OFFSET -15.875986 2.816427 1.102538
        CHANNELS 3 Xrotation Yrotation Zrotation
        JOINT mixamorig:RightArm
        {
          OFFSET -10.000000 -2.000000 0.000000
          CHANNELS 3 Xrotation Yrotation Zrotation
          JOINT mixamorig:RightForeArm
          {
            OFFSET -23.483627 0.000000 0.000000
            CHANNELS 3 Xrotation Yrotation Zrotation
            JOINT mixamorig:RightHand
            {
              OFFSET -28.348658 0.000000 0.000000
              CHANNELS 3 Xrotation Yrotation Zrotation
              End Site
              {
                OFFSET -8.504597 0.000000 0.000000
              }
            }
          }
        }
      }
    }
  }
  JOINT mixamorig:LeftUpLeg
  {
    OFFSET 9.009130 0.240009 2.918148
    CHANNELS 3 Xrotation Yrotation Zrotation
    JOINT mixamorig:LeftLeg
    {
      OFFSET 0.809956 -37.788772 -1.789155
      CHANNELS 3 Xrotation Yrotation Zrotation
      JOINT mixamorig:LeftFoot
      {
        OFFSET -0.901959 -37.488174 20.026946
        CHANNELS 3 Xrotation Yrotation Zrotation
        JOINT mixamorig:LeftToeBase
        {
          OFFSET 4.525492 -4.437166 -6.277901
          CHANNELS 3 Xrotation Yrotation Zrotation
          End Site
          {
            OFFSET 1.357648 -1.331150 -1.883370
          }
        }
      }
    }
  }
  JOINT mixamorig:RightUpLeg
  {
    OFFSET -9.009130 -0.240009 -2.918148
    CHANNELS 3 Xrotation Yrotation Zrotation
    JOINT mixamorig:RightLeg
    {
      OFFSET 3.877963 -37.466685 3.613488
      CHANNELS 3 Xrotation Yrotation Zrotation
      JOINT mixamorig:RightFoot
      {
        OFFSET -3.942954 -38.810233 16.895983
        CHANNELS 3 Xrotation Yrotation Zrotation
        JOINT mixamorig:RightToeBase
        {
          OFFSET -3.665792 -0.881179 -8.084928
          CHANNELS 3 Xrotation Yrotation Zrotation
          End Site
          {
            OFFSET -1.099738 -0.264354 -2.425478
          }
        }
      }
    }
  }
}
MOTION
Frames: 7
Frame Time: 0.041667
-0.693626 0.233302 0.000000 9.474260 -1.075032 -5.280230 0.002504 0.017191 0.103670 -8.356993 16.580031 4.695273 1.993766 -0.773829 7.837447 1.872956 -1.042569 7.823399 0.000000 0.000000 0.000000 -13.941143 63.401672 -22.853794 -2.201282 7.859543 47.105690 0.000000 0.000000 0.000000 0.000000 0.000000 0.000000 -59.255938 -52.973459 97.227936 -22.249994 -31.021059 46.021356 0.000000 0.000000 0.000000 -3.802512 -0.140862 4.641287 -6.120030 -1.398004 -2.540916 -8.098914 15.749134 -17.278548 0.000000 0.000000 0.000000 7.340214 0.963291 0.047634 -22.048622 6.490885 5.280087 -29.533086 -19.063834 20.159399 0.000000 0.000000 0.000000
-0.923509 0.271799 0.000000 9.653906 -1.324475 -8.278539 0.006349 0.017543 0.107358 -8.117262 19.805249 7.224477 1.037476 -1.966182 7.408530 0.776042 -2.084236 7.372678 0.000000 0.000000 0.000000 -27.625995 60.994665 -44.850011 -20.744738 -7.469253 72.084143 0.000000 0.000000 0.000000 0.000000 0.000000 0.000000 -51.046599 -46.852809 95.377126 50.174458 -33.102232 -36.875772 0.000000 0.000000 0.000000 -4.633716 -0.139696 6.650374 1.546546 -1.045620 -1.723909 -16.729548 11.050034 -22.072695 0.000000 0.000000 0.000000 27.382178 3.419384 -3.211180 -43.551125 9.841614 5.237080 -43.170176 -23.094648 30.048154 0.000000 0.000000 0.000000
-0.865910 0.309169 0.000000 9.641364 -1.584385 -11.473812 0.010783 0.017127 0.106712 -7.982296 21.568330 10.019033 0.381760 -2.640614 7.149478 0.046338 -2.665016 7.124712 0.000000 0.000000 0.000000 -38.335811 62.683958 -58.507184 -58.610609 -0.086014 9.238980 0.000000 0.000000 0.000000 0.000000 0.000000 0.000000 -56.423958 -44.665800 104.810339 -100.828265 -28.155366 140.905418 0.000000 0.000000 0.000000 -5.596674 -0.106588 7.831095 9.523009 0.254769 1.244256 -17.145213 7.968136 -20.239118 0.000000 0.000000 0.000000 58.642858 8.553327 -3.913185 -68.289733 4.144536 -3.399999 -48.667197 -14.838132 30.619546 0.000000 0.000000 0.000000
-0.457619 0.335837 0.000000 9.618077 -1.795888 -14.058789 0.014764 0.016704 0.105826 -7.912657 22.440569 12.286911 -0.539778 -2.464085 7.052809 -0.845232 -2.379939 7.070867 0.000000 0.000000 0.000000 -50.457789 63.828778 -74.072044 -71.236451 18.540372 -34.439310 0.000000 0.000000 0.000000 0.000000 0.000000 0.000000 -59.483697 -43.765377 109.553354 -62.316225 -28.375831 117.858747 0.000000 0.000000 0.000000 -6.260846 -0.074050 8.212349 13.510949 1.202676 3.862082 -15.006935 5.772431 -16.587458 0.000000 0.000000 0.000000 83.812858 15.308462 -6.686086 -80.045123 -11.586258 -14.285478 -52.795007 -1.190627 27.053735 0.000000 0.000000 0.000000
0.115975 0.357219 0.000000 9.646426 -1.896288 -15.313815 0.019902 0.016440 0.106380 -7.783251 24.022499 13.150104 -1.301679 -2.018305 6.467642 -1.515813 -1.850871 6.520082 0.000000 0.000000 0.000000 -51.316637 65.436425 -72.024338 33.620463 11.282068 132.108494 0.000000 0.000000 0.000000 0.000000 0.000000 0.000000 -53.177819 -47.481876 97.156671 -109.189778 -32.666040 155.538563 0.000000 0.000000 0.000000 -6.806496 -0.047787 8.318646 14.737048 1.566590 5.005746 -11.990754 4.751968 -13.072381 0.000000 0.000000 0.000000 98.769415 22.968079 -10.690186 -69.829225 -33.494399 -32.266745 -69.659324 8.708424 33.654674 0.000000 0.000000 0.000000
0.600503 0.371664 0.000000 9.831284 -1.928251 -15.870225 0.035215 0.016147 0.110977 -7.614323 26.109242 13.216084 -2.593002 -2.076959 7.435742 -2.814908 -1.723910 7.525461 0.000000 0.000000 0.000000 -78.149393 64.155829 -100.690000 76.234421 39.034227 82.829317 0.000000 0.000000 0.000000 0.000000 0.000000 0.000000 -47.441582 -45.798295 91.409747 -90.252784 -32.581818 144.024971 0.000000 0.000000 0.000000 -7.623740 -0.008074 8.015035 16.292304 1.930040 6.242767 -10.646334 3.192322 -10.709609 0.000000 0.000000 0.000000 110.317545 29.045756 -12.111455 -39.687287 -49.622022 -65.355686 -107.625077 6.862008 40.007637 0.000000 0.000000 0.000000
1.036345 0.372555 0.000000 10.142094 -1.900257 -15.802871 0.058099 0.015862 0.118757 -7.799335 23.871695 13.418564 -2.813266 -0.819576 8.501107 -2.904432 -0.396845 8.547245 0.000000 0.000000 0.000000 -111.082345 57.587272 -138.733273 -9.239041 33.954177 -30.762321 0.000000 0.000000 0.000000 0.000000 0.000000 0.000000 -37.574965 -42.611777 82.247454 -61.606402 -33.301993 126.425627 0.000000 0.000000 0.000000 -7.640675 0.009727 8.967280 19.225724 1.088795 4.534571 -11.897806 2.003911 -10.797422 0.000000 0.000000 0.000000 114.607564 33.924571 -14.526791 8.252593 -40.370199 -97.679839 -141.450614 -18.253806 1.238159 0.000000 0.000000 0.000000
